<svg width="20" height="21" viewBox="0 0 20 21" fill="none" xmlns="http://www.w3.org/2000/svg">
<g clip-path="url(#clip0_18_9)">
<path fill-rule="evenodd" clip-rule="evenodd" d="M10 0.0491333C4.475 0.0491333 0 4.52413 0 10.0491C0 14.4741 2.8625 18.2116 6.8375 19.5366C7.3375 19.6241 7.525 19.3241 7.525 19.0616C7.525 18.8241 7.5125 18.0366 7.5125 17.1991C5 17.6616 4.35 16.5866 4.15 16.0241C4.0375 15.7366 3.55 14.8491 3.125 14.6116C2.775 14.4241 2.275 13.9616 3.1125 13.9491C3.9 13.9366 4.4625 14.6741 4.65 14.9741C5.55 16.4866 6.9875 16.0616 7.5625 15.7991C7.65 15.1491 7.9125 14.7116 8.2 14.4616C5.975 14.2116 3.65 13.3491 3.65 9.52413C3.65 8.43663 4.0375 7.53663 4.675 6.83663C4.575 6.58663 4.225 5.56163 4.775 4.18663C4.775 4.18663 5.6125 3.92413 7.525 5.21163C8.325 4.98663 9.175 4.87413 10.025 4.87413C10.875 4.87413 11.725 4.98663 12.525 5.21163C14.4375 3.91163 15.275 4.18663 15.275 4.18663C15.825 5.56163 15.475 6.58663 15.375 6.83663C16.0125 7.53663 16.4 8.42413 16.4 9.52413C16.4 13.3616 14.0625 14.2116 11.8375 14.4616C12.2 14.7741 12.5125 15.3741 12.5125 16.3116C12.5125 17.6491 12.5 18.7241 12.5 19.0616C12.5 19.3241 12.6875 19.6366 13.1875 19.5366C15.1726 18.8664 16.8976 17.5905 18.1197 15.8886C19.3418 14.1867 19.9994 12.1444 20 10.0491C20 4.52413 15.525 0.0491333 10 0.0491333Z" fill="white" fill-opacity="0.75"/>
</g>
<defs>
<clipPath id="clip0_18_9">
<rect width="20" height="20" fill="white" transform="translate(0 0.0491333)"/>
</clipPath>
</defs>
</svg>
