<svg width="20" height="21" viewBox="0 0 20 21" fill="none" xmlns="http://www.w3.org/2000/svg">
<g clip-path="url(#clip0_18_6)">
<path fill-rule="evenodd" clip-rule="evenodd" d="M6.22081 0.937462C7.19831 0.892462 7.50998 0.882462 9.99998 0.882462C12.49 0.882462 12.8016 0.893295 13.7783 0.937462C14.755 0.981628 15.4216 1.13746 16.005 1.36329C16.6158 1.59413 17.17 1.95496 17.6283 2.42163C18.095 2.87913 18.455 3.43246 18.685 4.04413C18.9116 4.62746 19.0666 5.29413 19.1116 6.26913C19.1566 7.24829 19.1666 7.55996 19.1666 10.0491C19.1666 12.5391 19.1558 12.8508 19.1116 13.8283C19.0675 14.8033 18.9116 15.47 18.685 16.0533C18.455 16.665 18.0944 17.2193 17.6283 17.6775C17.17 18.1441 16.6158 18.5041 16.005 18.7341C15.4216 18.9608 14.755 19.1158 13.78 19.1608C12.8016 19.2058 12.49 19.2158 9.99998 19.2158C7.50998 19.2158 7.19831 19.205 6.22081 19.1608C5.24581 19.1166 4.57915 18.9608 3.99581 18.7341C3.38408 18.5041 2.82983 18.1435 2.37165 17.6775C1.9053 17.2197 1.54441 16.6657 1.31415 16.0541C1.08831 15.4708 0.933313 14.8041 0.888313 13.8291C0.843313 12.85 0.833313 12.5383 0.833313 10.0491C0.833313 7.55913 0.844146 7.24746 0.888313 6.27079C0.93248 5.29413 1.08831 4.62746 1.31415 4.04413C1.54475 3.43253 1.90591 2.87856 2.37248 2.42079C2.83001 1.95455 3.38371 1.59366 3.99498 1.36329C4.57831 1.13746 5.24498 0.982462 6.21998 0.937462H6.22081ZM13.7041 2.58746C12.7375 2.54329 12.4475 2.53413 9.99998 2.53413C7.55248 2.53413 7.26248 2.54329 6.29581 2.58746C5.40165 2.62829 4.91665 2.77746 4.59331 2.90329C4.16581 3.06996 3.85998 3.26746 3.53915 3.58829C3.23502 3.88417 3.00096 4.24436 2.85415 4.64246C2.72831 4.96579 2.57915 5.45079 2.53831 6.34496C2.49415 7.31163 2.48498 7.60163 2.48498 10.0491C2.48498 12.4966 2.49415 12.7866 2.53831 13.7533C2.57915 14.6475 2.72831 15.1325 2.85415 15.4558C3.00081 15.8533 3.23498 16.2141 3.53915 16.51C3.83498 16.8141 4.19581 17.0483 4.59331 17.195C4.91665 17.3208 5.40165 17.47 6.29581 17.5108C7.26248 17.555 7.55165 17.5641 9.99998 17.5641C12.4483 17.5641 12.7375 17.555 13.7041 17.5108C14.5983 17.47 15.0833 17.3208 15.4066 17.195C15.8341 17.0283 16.14 16.8308 16.4608 16.51C16.765 16.2141 16.9991 15.8533 17.1458 15.4558C17.2716 15.1325 17.4208 14.6475 17.4616 13.7533C17.5058 12.7866 17.515 12.4966 17.515 10.0491C17.515 7.60163 17.5058 7.31163 17.4616 6.34496C17.4208 5.45079 17.2716 4.96579 17.1458 4.64246C16.9791 4.21496 16.7816 3.90913 16.4608 3.58829C16.1649 3.28419 15.8047 3.05014 15.4066 2.90329C15.0833 2.77746 14.5983 2.62829 13.7041 2.58746ZM8.82915 12.875C9.48303 13.1472 10.2111 13.1839 10.8891 12.9789C11.567 12.7739 12.1528 12.3399 12.5463 11.751C12.9398 11.1621 13.1167 10.4549 13.0467 9.75005C12.9767 9.04524 12.6641 8.3866 12.1625 7.88663C11.8427 7.56702 11.456 7.3223 11.0303 7.17008C10.6045 7.01786 10.1503 6.96193 9.70039 7.00631C9.25045 7.05069 8.81594 7.19428 8.42815 7.42674C8.04036 7.6592 7.70893 7.97475 7.45773 8.35067C7.20653 8.72659 7.0418 9.15353 6.97541 9.60076C6.90901 10.048 6.94261 10.5044 7.07376 10.9371C7.20492 11.3697 7.43038 11.768 7.73391 12.1031C8.03745 12.4382 8.4115 12.7018 8.82915 12.875ZM6.66831 6.71746C7.10583 6.27994 7.62525 5.93288 8.19689 5.6961C8.76854 5.45931 9.38123 5.33744 9.99998 5.33744C10.6187 5.33744 11.2314 5.45931 11.8031 5.6961C12.3747 5.93288 12.8941 6.27994 13.3316 6.71746C13.7692 7.15498 14.1162 7.67439 14.353 8.24604C14.5898 8.81769 14.7117 9.43038 14.7117 10.0491C14.7117 10.6679 14.5898 11.2806 14.353 11.8522C14.1162 12.4239 13.7692 12.9433 13.3316 13.3808C12.448 14.2644 11.2496 14.7608 9.99998 14.7608C8.75036 14.7608 7.55193 14.2644 6.66831 13.3808C5.7847 12.4972 5.28829 11.2987 5.28829 10.0491C5.28829 8.79951 5.7847 7.60107 6.66831 6.71746ZM15.7566 6.03913C15.8651 5.93685 15.9519 5.81386 16.0119 5.67744C16.0719 5.54102 16.104 5.39394 16.1062 5.2449C16.1083 5.09587 16.0806 4.94792 16.0245 4.8098C15.9685 4.67169 15.8853 4.54622 15.7799 4.44083C15.6746 4.33543 15.5491 4.25226 15.411 4.19623C15.2729 4.14019 15.1249 4.11244 14.9759 4.11461C14.8268 4.11679 14.6798 4.14884 14.5433 4.20887C14.4069 4.26891 14.2839 4.35571 14.1816 4.46413C13.9827 4.67499 13.8738 4.95506 13.8781 5.2449C13.8823 5.53474 13.9993 5.81153 14.2043 6.0165C14.4092 6.22147 14.686 6.33848 14.9759 6.34271C15.2657 6.34694 15.5458 6.23804 15.7566 6.03913Z" fill="white" fill-opacity="0.75"/>
</g>
<defs>
<clipPath id="clip0_18_6">
<rect width="20" height="20" fill="white" transform="translate(0 0.0491333)"/>
</clipPath>
</defs>
</svg>
