<svg width="20" height="21" viewBox="0 0 20 21" fill="none" xmlns="http://www.w3.org/2000/svg">
<g clip-path="url(#clip0_18_12)">
<path fill-rule="evenodd" clip-rule="evenodd" d="M0.833313 2.41413C0.833313 2.00791 0.994685 1.61832 1.28193 1.33108C1.56917 1.04384 1.95876 0.882464 2.36498 0.882464H17.6333C17.8346 0.882135 18.034 0.921516 18.2201 0.998353C18.4062 1.07519 18.5753 1.18797 18.7177 1.33024C18.8601 1.47252 18.9731 1.64148 19.0501 1.82747C19.1272 2.01346 19.1668 2.21282 19.1666 2.41413V17.6825C19.1669 17.8838 19.1274 18.0832 19.0505 18.2693C18.9735 18.4554 18.8607 18.6245 18.7183 18.7669C18.576 18.9093 18.407 19.0223 18.2209 19.0993C18.0349 19.1763 17.8355 19.2159 17.6341 19.2158H2.36498C2.16377 19.2158 1.96453 19.1762 1.77864 19.0991C1.59276 19.0221 1.42387 18.9092 1.28163 18.7669C1.13939 18.6246 1.02659 18.4556 0.949665 18.2697C0.872741 18.0838 0.833204 17.8845 0.833313 17.6833V2.41413ZM8.08998 7.87246H10.5725V9.11913C10.9308 8.40246 11.8475 7.75746 13.225 7.75746C15.8658 7.75746 16.4916 9.18496 16.4916 11.8041V16.6558H13.8191V12.4008C13.8191 10.9091 13.4608 10.0675 12.5508 10.0675C11.2883 10.0675 10.7633 10.975 10.7633 12.4008V16.6558H8.08998V7.87246ZM3.50665 16.5416H6.17998V7.75746H3.50665V16.5408V16.5416ZM6.56248 4.89246C6.56752 5.12136 6.52679 5.34895 6.44268 5.56189C6.35857 5.77483 6.23277 5.96883 6.07267 6.13249C5.91257 6.29615 5.7214 6.42619 5.51036 6.51497C5.29932 6.60375 5.07268 6.64948 4.84373 6.64948C4.61478 6.64948 4.38814 6.60375 4.1771 6.51497C3.96606 6.42619 3.77489 6.29615 3.61479 6.13249C3.45469 5.96883 3.32889 5.77483 3.24478 5.56189C3.16067 5.34895 3.11994 5.12136 3.12498 4.89246C3.13487 4.44318 3.3203 4.01562 3.64155 3.70137C3.9628 3.38711 4.39433 3.21114 4.84373 3.21114C5.29313 3.21114 5.72466 3.38711 6.04591 3.70137C6.36716 4.01562 6.55259 4.44318 6.56248 4.89246Z" fill="white" fill-opacity="0.75"/>
</g>
<defs>
<clipPath id="clip0_18_12">
<rect width="20" height="20" fill="white" transform="translate(0 0.0491333)"/>
</clipPath>
</defs>
</svg>
